<svg width="36" height="36" viewBox="0 0 36 36" fill="none" xmlns="http://www.w3.org/2000/svg">
<path d="M7.50356 10.4993H7.46006C6.99948 10.528 6.53791 10.4614 6.10427 10.3036C5.67062 10.1457 5.27423 9.90007 4.93991 9.58195C4.6056 9.26383 4.34056 8.88011 4.1614 8.45483C3.98224 8.02955 3.89281 7.57185 3.89871 7.11041C3.90461 6.64897 4.00572 6.19371 4.1957 5.77315C4.38568 5.35259 4.66044 4.97577 5.00278 4.66631C5.34512 4.35684 5.74766 4.12139 6.1852 3.97469C6.62275 3.82798 7.08587 3.7732 7.54556 3.81375C8.00615 3.78158 8.46842 3.84489 8.9034 3.99972C9.33838 4.15455 9.73669 4.39755 10.0734 4.71351C10.41 5.02947 10.6778 5.41157 10.8599 5.83585C11.042 6.26013 11.1345 6.71746 11.1316 7.17916C11.1287 7.64087 11.0305 8.09699 10.8431 8.51896C10.6556 8.94092 10.3831 9.31962 10.0425 9.63132C9.70185 9.94303 9.30052 10.181 8.86363 10.3304C8.42674 10.4797 7.96371 10.5372 7.50356 10.4993V10.4993Z" fill="white"/>
<path d="M4.52734 15H10.5273V33H4.52734V15Z" fill="white"/>
<path d="M26.2773 15C25.2663 15.0027 24.269 15.2339 23.3599 15.6763C22.4508 16.1186 21.6534 16.7607 21.0273 17.5545V15H15.0273V33H21.0273V24.75C21.0273 23.9544 21.3434 23.1913 21.906 22.6287C22.4686 22.0661 23.2317 21.75 24.0273 21.75C24.823 21.75 25.5861 22.0661 26.1487 22.6287C26.7113 23.1913 27.0273 23.9544 27.0273 24.75V33H33.0273V21.75C33.0273 19.9598 32.3162 18.2429 31.0503 16.977C29.7844 15.7112 28.0676 15 26.2773 15Z" fill="white"/>
</svg>
