<svg width="36" height="36" viewBox="0 0 36 36" fill="none" xmlns="http://www.w3.org/2000/svg">
<path d="M33 8.69429C31.8766 9.19225 30.6848 9.51888 29.4645 9.66329C30.7503 8.89446 31.7126 7.68425 32.172 6.25829C30.9639 6.97599 29.6418 7.48131 28.263 7.75229C27.4182 6.85292 26.3227 6.22812 25.1185 5.9589C23.9143 5.68968 22.657 5.78846 21.5096 6.24243C20.3622 6.6964 19.3777 7.48462 18.6837 8.50488C17.9897 9.52513 17.6183 10.7304 17.6175 11.9643C17.6167 12.4362 17.6695 12.9068 17.775 13.3668C15.3281 13.2439 12.9345 12.608 10.7493 11.5001C8.56413 10.3923 6.63632 8.83739 5.091 6.93629C4.30389 8.29132 4.06275 9.89538 4.41666 11.4219C4.77058 12.9485 5.69294 14.2828 6.996 15.1533C6.01789 15.1233 5.06119 14.8594 4.206 14.3838V14.4618C4.20624 15.883 4.69809 17.2604 5.59812 18.3602C6.49815 19.4601 7.75095 20.2148 9.144 20.4963C8.61553 20.64 8.07016 20.7121 7.5225 20.7108C7.13348 20.711 6.74529 20.6748 6.363 20.6028C6.75608 21.8255 7.52139 22.8949 8.55197 23.6613C9.58255 24.4278 10.8269 24.8531 12.111 24.8778C9.53013 26.8978 6.25412 27.813 3 27.4233C5.81408 29.2323 9.08962 30.1926 12.435 30.1893C14.7387 30.2048 17.0224 29.7625 19.1537 28.8881C21.285 28.0137 23.2213 26.7245 24.8502 25.0954C26.4791 23.4664 27.7681 21.53 28.6424 19.3986C29.5167 17.2673 29.9587 14.9834 29.943 12.6798C29.943 12.4128 29.9365 12.1478 29.9235 11.8848C31.1303 11.0124 32.1721 9.93202 33 8.69429Z" fill="white"/>
</svg>
